# xmcd
#
# Track frame offsets:
#	150
#	15372
#	28632
#	42390
#	55620
#	69652
#	84427
#	98107
#	110830
#	125612
#	137362
#	149722
#	162935
#	176687
#	188370
#	199647
#	211262
#	223960
#	236322
#	248202
#	261120
#	275455
#	289000
#	302060
#	315105
#	328992
#
# Disc length: 4566 seconds
#
# Revision: 0
# Processed by: cddbd v1.5.2PL0 Copyright (c) Steve Scherf et al.
# Submitted via: EasyCDDAExtractor 2010.3.0.0
#
DISCID=7711d41a
DTITLE=Autry Gene - That Silver Haired Daddy Of Mine Disc 2
DYEAR=1900
DGENRE=
TTITLE0=That's Why I Left The Mountains
TTITLE1=Cowboy Yodel
TTITLE2=I'll Be Thinking Of You Little Gal (Alt.#2)
TTITLE3=My Rough And Rowdy Ways
TTITLE4=I'll Be Thinking Of You Little Girl (Alt.#4)
TTITLE5=Cowboy Yodel (Alt)
TTITLE6=Whisper Your Mother's Name
TTITLE7=Girl I Left Behind
TTITLE8=I'll Be Thinking Of You Little Gal (Alt.#3)
TTITLE9=Cowboy Yodel (Alt.#3)
TTITLE10=In The Shadow Of The Pine
TTITLE11=Hobo Yodel (Alt.)
TTITLE12=They Cut Down The Old Pine Tree
TTITLE13=Texas Blues
TTITLE14=Hobo Bill's Last Ride
TTITLE15=Dust Pan Blues
TTITLE16=My Carolina Sunshine Girl
TTITLE17=Train Whistle Blues
TTITLE18=Anniversary Blue Yodel No. 7
TTITLE19=In The Jailhouse Now No. 2
TTITLE20=Yodeling Hobo
TTITLE21=Pictures Of My Mother
TTITLE22=Blue Days
TTITLE23=In The Jailhouse Now No. 2 (Alt.)
TTITLE24=Cowboy's Yodel (Alt.#3)
TTITLE25=Dad In The Hills
EXTD=
EXTT0=
EXTT1=
EXTT2=
EXTT3=
EXTT4=
EXTT5=
EXTT6=
EXTT7=
EXTT8=
EXTT9=
EXTT10=
EXTT11=
EXTT12=
EXTT13=
EXTT14=
EXTT15=
EXTT16=
EXTT17=
EXTT18=
EXTT19=
EXTT20=
EXTT21=
EXTT22=
EXTT23=
EXTT24=
EXTT25=
PLAYORDER=
